<?xml version="1.0" encoding="UTF-8"?>
<svg version="1.1" xmlns="http://www.w3.org/2000/svg" width="1024" height="1024">
<path d="M0 0 C337.92 0 675.84 0 1024 0 C1024 337.92 1024 675.84 1024 1024 C686.08 1024 348.16 1024 0 1024 C0 686.08 0 348.16 0 0 Z " fill="#09141E" transform="translate(0,0)"/>
<path d="M0 0 C4.81220466 3.89993837 6.88613797 7.96550864 9.0234375 13.7109375 C9.5184375 14.7009375 9.5184375 14.7009375 10.0234375 15.7109375 C10.1282945 18.70975114 10.17123027 21.68569631 10.17060852 24.68504333 C10.17428521 25.62637511 10.1779619 26.56770688 10.18175 27.53756386 C10.19281852 30.71181557 10.1966361 33.88603458 10.20043945 37.06030273 C10.2067019 39.32843633 10.21334851 41.59656889 10.22035217 43.86470032 C10.23778664 50.04280582 10.24832142 56.22090356 10.2565577 62.39902759 C10.26170455 66.25888437 10.26778055 70.11873874 10.27406883 73.97859383 C10.29094512 84.66985934 10.30557791 95.36112143 10.31281757 106.05239773 C10.31472743 108.8278192 10.31664776 111.60324067 10.31860352 114.37866211 C10.31908726 115.06846832 10.319571 115.75827453 10.3200694 116.46898396 C10.3283595 127.62916826 10.3536767 138.78924502 10.38618419 149.94938242 C10.41930389 161.41348378 10.43693856 172.87750503 10.44046181 184.34165913 C10.44281135 190.77570555 10.45175902 197.20958223 10.47692299 203.6435833 C10.50023308 209.70187312 10.50442489 215.75988181 10.49416161 221.81820488 C10.49366679 224.03731217 10.49997103 226.25643343 10.51371765 228.4754982 C10.65067747 251.90293888 10.65067747 251.90293888 4.05078125 261.61328125 C-2.99571377 268.47538201 -9.91006943 271.74795915 -19.7890625 272.2734375 C-35.995568 271.6646439 -51.1030052 262.14033159 -61.9765625 250.7109375 C-65.83486198 246.08418003 -67.9163574 242.04095144 -69.3515625 236.2109375 C-71.2320508 230.4408922 -74.59368931 228.71843274 -79.7265625 226.0859375 C-80.44408691 225.72314697 -81.16161133 225.36035645 -81.90087891 224.98657227 C-92.00324877 219.82695815 -97.30371508 212.07982936 -101.1015625 201.609375 C-102.01133596 197.55600932 -101.97213483 194.29528487 -101.74511719 190.18725586 C-101.25869046 180.94928424 -101.50919935 175.3360553 -107.93359375 168.1953125 C-115.27930112 159.26248289 -116.13502205 144.48134073 -115.35400391 133.37988281 C-113.83065493 122.60805162 -109.34116123 111.67901341 -104.73828125 101.87109375 C-103.14023702 98.35696699 -102.54431533 95.55128959 -102.5390625 91.6484375 C-101.90479685 79.49872663 -96.89188717 68.0871529 -92.38818359 56.91333008 C-91.0550013 53.59322976 -89.87918477 50.36993967 -88.89453125 46.921875 C-86.32162669 37.9221833 -79.67960884 31.91854128 -72.9765625 25.7109375 C-72.21085937 24.98003906 -71.44515625 24.24914062 -70.65625 23.49609375 C-63.07279901 16.75389375 -54.31350631 12.30512568 -45.37890625 7.60546875 C-40.86626856 5.22662564 -36.49214837 2.67152181 -32.14575195 0.00219727 C-21.89123732 -6.10203773 -10.13937851 -6.61263816 0 0 Z " fill="#09141E" transform="translate(293.9765625,369.2890625)"/>
<path d="M0 0 C74.17189822 0 74.17189822 0 95.6875 20 C108.24620419 33.0797377 112.54217158 48.6151525 112.375 66.4375 C112.38660156 67.67048828 112.39820313 68.90347656 112.41015625 70.17382812 C112.35193064 88.54400713 106.28087761 104.12164491 93.23828125 117.0859375 C67.83494169 140.79162419 32.38607787 135 0 135 C0 90.45 0 45.9 0 0 Z " fill="#FCFCFC" transform="translate(686,443)"/>
<path d="M0 0 C9.53682514 0.17726441 17.60729138 6.89304118 24.24609375 13.09375 C26.5 15.4375 26.5 15.4375 28.6171875 18.44921875 C32.11445649 22.71563032 37.1393757 23.9543359 42.1875 25.75 C50.89101147 29.08004534 57.47530442 32.10656512 63.5 39.4375 C64.25023437 40.28441406 64.25023437 40.28441406 65.015625 41.1484375 C70.99540451 49.10946925 72.93920954 61.41350941 74.4375 71.0625 C75.2278638 75.39842103 77.07829009 77.95118625 79.84765625 81.31640625 C89.52472908 93.73874797 91.66194074 106.41230588 89.77807617 121.61865234 C89.59697791 123.00670134 89.40869794 124.39383828 89.2121582 125.77978516 C88.31372856 132.18618747 88.05689644 137.05064858 90.4375 143.125 C90.79714844 144.05699219 91.15679687 144.98898437 91.52734375 145.94921875 C91.84832031 146.77035156 92.16929687 147.59148437 92.5 148.4375 C95.32175251 156.90275754 94.73130141 169.14890426 90.8515625 177.1875 C88.7303563 180.71875657 86.43603561 184.09365738 83.98828125 187.40625 C81.76765819 190.43702163 81.39725293 192.03635508 81.46484375 195.734375 C81.46740948 209.58416861 79.90497255 218.98960007 69.8046875 229.1484375 C57.85072816 239.4375 57.85072816 239.4375 51.5 239.4375 C51.29375 240.22125 51.0875 241.005 50.875 241.8125 C45.68736394 255.48899506 36.74838882 266.22628529 23.5 272.4375 C15.30881228 276.00077529 6.47960569 278.3951873 -2.5 277.4375 C-10.47679313 274.07105636 -17.54175526 268.19797913 -21.5 260.4375 C-21.88818359 257.43896484 -21.88818359 257.43896484 -21.8984375 254.1484375 C-21.90230469 252.95992187 -21.90617187 251.77140625 -21.91015625 250.546875 C-21.89855469 249.31453125 -21.88695312 248.0821875 -21.875 246.8125 C-21.88660156 245.57242188 -21.89820313 244.33234375 -21.91015625 243.0546875 C-21.90628906 241.86875 -21.90242188 240.6828125 -21.8984375 239.4609375 C-21.89505371 238.37731934 -21.89166992 237.29370117 -21.88818359 236.17724609 C-21.5 233.4375 -21.5 233.4375 -20.28540039 231.58642578 C-17.92929158 230.07024254 -16.32842222 230.0537413 -13.53515625 230.03125 C-12.57029297 230.00933594 -11.60542969 229.98742187 -10.61132812 229.96484375 C-9.60521484 229.95582031 -8.59910156 229.94679688 -7.5625 229.9375 C-5.57405377 229.91959759 -3.58567175 229.88884175 -1.59765625 229.84375 C-0.71601807 229.83666016 0.16562012 229.82957031 1.07397461 229.82226562 C3.98259338 229.36096109 5.3631032 228.43266539 7.5 226.4375 C8.38810254 223.35797562 8.23712687 220.54553492 7.5 217.4375 C4.79671417 214.65689532 4.79671417 214.65689532 1.5 212.4375 C-2.56834518 207.94090796 -3.22807467 204.0846494 -3.02734375 198.19921875 C-2.16211209 193.6679685 0.23648422 190.60573065 3.5 187.4375 C8.60352648 184.03514901 14.55129055 184.78718078 20.5 185.4375 C25.23418502 187.31892288 27.84753832 191.82836966 29.87109375 196.32421875 C30.93988537 199.91562413 30.64973136 202.90042836 29.5 206.4375 C27.76152674 209.61470975 26.48273259 211.82602194 23.390625 213.75 C21.23627907 215.31729161 21.23627907 215.31729161 21.06640625 218.07421875 C21.06511719 219.08097656 21.06382812 220.08773437 21.0625 221.125 C20.76948513 227.02103085 19.43674923 231.00012369 15.5 235.4375 C12.39904263 237.50480491 11.73454393 237.67766929 8.2265625 237.67578125 C6.9890625 237.69995117 6.9890625 237.69995117 5.7265625 237.72460938 C4.00007437 237.74145948 2.27343297 237.74677437 0.546875 237.74023438 C-3.86934916 237.84685661 -5.92195775 238.00893874 -9.56640625 240.7109375 C-12.04923113 244.21197137 -12.17372271 245.94638854 -11.91796875 250.09375 C-10.97596022 255.37604083 -8.79367064 259.07574143 -5.125 262.9375 C1.83705017 265.81834835 8.9053019 265.73513766 15.984375 263.1796875 C28.098061 257.06597274 35.36331488 248.91711859 40.5 236.4375 C40.93119141 234.81908203 40.93119141 234.81908203 41.37109375 233.16796875 C42.5 230.4375 42.5 230.4375 44.6015625 229.40625 C45.85066406 229.17421875 45.85066406 229.17421875 47.125 228.9375 C55.48333682 226.86598136 61.60132885 221.43802314 66.5 214.4375 C67.75940976 210.65927072 67.64517402 207.12143314 67.625 203.1875 C67.62886719 202.44886719 67.63273437 201.71023438 67.63671875 200.94921875 C67.6303708 197.34993115 67.44745976 194.14057256 66.81640625 190.57421875 C66.5 187.4375 66.5 187.4375 67.64453125 185.66015625 C72.27777778 182.4375 72.27777778 182.4375 74.5 182.4375 C74.78617187 181.84324219 75.07234375 181.24898437 75.3671875 180.63671875 C76.5 178.4375 76.5 178.4375 78.625 175.25 C82.78892322 166.87519202 81.40694867 155.22921352 78.75 146.5625 C77.37714603 142.65095576 76.12686014 140.5427464 72.5 138.4375 C69.52878466 138.20876231 69.52878466 138.20876231 66.5 139.4375 C65.675 140.448125 64.85 141.45875 64 142.5 C60.92824849 145.83110784 58.1317483 146.06904494 53.6875 146.3125 C47.51756458 145.97881314 43.36537837 144.84546178 39.04296875 140.3203125 C35.77073205 134.20661457 35.8713875 127.09085087 37.5 120.4375 C39.40689394 116.50814279 41.39795712 114.89212513 45.5 113.4375 C52.04753164 112.47318904 57.98899467 111.99762282 63.8515625 115.359375 C67.94149042 118.56858098 69.74480293 121.57695427 71.5 126.4375 C72.82 126.4375 74.14 126.4375 75.5 126.4375 C79.47215042 117.42923029 81.66109887 109.33602867 78.171875 99.8125 C75.42832272 93.69984291 72.20068771 88.29557115 67.078125 83.8671875 C62.47813582 79.69987057 62.02640194 76.03422076 61.625 70 C60.69327356 59.93654332 58.99724053 50.40692638 51.625 42.9375 C43.56512635 36.56238255 32.59681142 33.96891113 22.5 33.4375 C22.20609375 32.47650391 22.20609375 32.47650391 21.90625 31.49609375 C19.17792515 23.60511972 15.21772315 19.29296401 8.125 15 C3.34020288 13.97468633 -1.90768933 13.10688655 -6.41015625 15.41796875 C-9.27821635 17.70818873 -11.21045617 20.03601489 -12.5 23.4375 C-12.82434568 26.79907647 -12.82434568 26.79907647 -12.80639648 30.60522461 C-12.81472 31.31954147 -12.82304352 32.03385834 -12.83161926 32.76982117 C-12.85567656 35.12655109 -12.86448526 37.48300414 -12.87109375 39.83984375 C-12.88006215 41.48124778 -12.88918403 43.12265098 -12.89845276 44.76405334 C-12.91493283 48.20299261 -12.92264128 51.64183462 -12.92553711 55.08081055 C-12.9309252 59.48389382 -12.96862604 63.88606153 -13.01428127 68.28888607 C-13.044044 71.67842437 -13.05126046 75.06774175 -13.05226326 78.45739937 C-13.05646585 80.08051314 -13.06890188 81.70362755 -13.08978081 83.32661247 C-13.11668604 85.59855176 -13.1118751 87.86836279 -13.09936523 90.14038086 C-13.10443588 91.43181503 -13.10950653 92.72324921 -13.11473083 94.05381775 C-12.34019442 98.31712288 -10.86117051 99.78950085 -7.5 102.4375 C-4.58914058 103.1651875 -4.58914058 103.1651875 -1.46484375 103.03125 C-0.32595703 103.02867187 0.81292969 103.02609375 1.98632812 103.0234375 C3.16646484 102.99507813 4.34660156 102.96671875 5.5625 102.9375 C6.74650391 102.94007813 7.93050781 102.94265625 9.15039062 102.9453125 C16.48762892 103.12280331 16.48762892 103.12280331 22.5 99.4375 C23.37727281 95.70624226 23.25914917 92.18792349 22.5 88.4375 C19.81434821 86.00814776 19.81434821 86.00814776 16.5 84.4375 C12.45494418 79.08053418 10.91198167 74.74603212 11.05859375 68.08984375 C11.72148199 64.10664806 13.14743214 61.74259977 15.96484375 58.87890625 C21.28298573 55.85518608 27.62727207 56.48041463 33.5 57.4375 C38.0221942 59.67037259 40.31618513 61.82722415 42.5 66.4375 C43.31465334 70.61938717 43.40896745 74.26475468 42.5 78.4375 C40.73828125 80.91015625 40.73828125 80.91015625 38.5625 83.25 C33.70117424 88.50295621 33.68573753 93.11575381 33.828125 99.921875 C33.42942452 104.1936659 32.15639058 106.11236773 29.5 109.4375 C29.00209961 110.14422852 28.50419922 110.85095703 27.99121094 111.57910156 C24.07542328 114.50020854 20.16681341 114.00927659 15.40625 113.96875 C14.42257446 113.9725769 13.43889893 113.97640381 12.42541504 113.98034668 C10.34756445 113.98306627 8.26967965 113.97570182 6.19189453 113.95898438 C3.01126789 113.93757584 -0.16709987 113.95878488 -3.34765625 113.984375 C-5.36719249 113.98173173 -7.38672732 113.97660678 -9.40625 113.96875 C-10.35737671 113.97684692 -11.30850342 113.98494385 -12.28845215 113.99328613 C-13.1761731 113.98067749 -14.06389404 113.96806885 -14.97851562 113.95507812 C-15.75698853 113.95189575 -16.53546143 113.94871338 -17.33752441 113.94543457 C-20.54921565 113.19105426 -21.61073095 112.14932896 -23.5 109.4375 C-23.92028755 106.3817385 -24.09780621 103.68001098 -24.09692383 100.62084961 C-24.11196457 99.73085266 -24.12700531 98.84085571 -24.14250183 97.92388916 C-24.18561957 94.97900456 -24.19828253 92.03501892 -24.20703125 89.08984375 C-24.22242956 87.03682624 -24.23827989 84.98381208 -24.25456238 82.93080139 C-24.28304175 78.62249308 -24.29443334 74.31450103 -24.29614258 70.00610352 C-24.30130918 64.50661079 -24.36615301 59.0096188 -24.44643116 53.51077938 C-24.49864279 49.26652635 -24.50970384 45.02286679 -24.50964928 40.77832222 C-24.51618369 38.75260918 -24.53733416 36.72688517 -24.57383156 34.7014904 C-24.86674583 16.9163056 -24.86674583 16.9163056 -19.17456055 9.77172852 C-13.45088709 3.92648731 -8.0766875 1.00958594 0 0 Z " fill="#4DC050" transform="translate(336.5,363.5625)"/>
<path d="M0 0 C4.81220466 3.89993837 6.88613797 7.96550864 9.0234375 13.7109375 C9.5184375 14.7009375 9.5184375 14.7009375 10.0234375 15.7109375 C10.1282945 18.70975114 10.17123027 21.68569631 10.17060852 24.68504333 C10.17428521 25.62637511 10.1779619 26.56770688 10.18175 27.53756386 C10.19281852 30.71181557 10.1966361 33.88603458 10.20043945 37.06030273 C10.2067019 39.32843633 10.21334851 41.59656889 10.22035217 43.86470032 C10.23778664 50.04280582 10.24832142 56.22090356 10.2565577 62.39902759 C10.26170455 66.25888437 10.26778055 70.11873874 10.27406883 73.97859383 C10.29094512 84.66985934 10.30557791 95.36112143 10.31281757 106.05239773 C10.31472743 108.8278192 10.31664776 111.60324067 10.31860352 114.37866211 C10.31908726 115.06846832 10.319571 115.75827453 10.3200694 116.46898396 C10.3283595 127.62916826 10.3536767 138.78924502 10.38618419 149.94938242 C10.41930389 161.41348378 10.43693856 172.87750503 10.44046181 184.34165913 C10.44281135 190.77570555 10.45175902 197.20958223 10.47692299 203.6435833 C10.50023308 209.70187312 10.50442489 215.75988181 10.49416161 221.81820488 C10.49366679 224.03731217 10.49997103 226.25643343 10.51371765 228.4754982 C10.65067747 251.90293888 10.65067747 251.90293888 4.05078125 261.61328125 C-2.99571377 268.47538201 -9.91006943 271.74795915 -19.7890625 272.2734375 C-35.995568 271.6646439 -51.1030052 262.14033159 -61.9765625 250.7109375 C-65.83486198 246.08418003 -67.9163574 242.04095144 -69.3515625 236.2109375 C-71.2320508 230.4408922 -74.59368931 228.71843274 -79.7265625 226.0859375 C-80.44408691 225.72314697 -81.16161133 225.36035645 -81.90087891 224.98657227 C-92.00324877 219.82695815 -97.30371508 212.07982936 -101.1015625 201.609375 C-102.01133596 197.55600932 -101.97213483 194.29528487 -101.74511719 190.18725586 C-101.25869046 180.94928424 -101.50919935 175.3360553 -107.93359375 168.1953125 C-115.27930112 159.26248289 -116.13502205 144.48134073 -115.35400391 133.37988281 C-113.83065493 122.60805162 -109.34116123 111.67901341 -104.73828125 101.87109375 C-103.14023702 98.35696699 -102.54431533 95.55128959 -102.5390625 91.6484375 C-101.90479685 79.49872663 -96.89188717 68.0871529 -92.38818359 56.91333008 C-91.0550013 53.59322976 -89.87918477 50.36993967 -88.89453125 46.921875 C-86.32162669 37.9221833 -79.67960884 31.91854128 -72.9765625 25.7109375 C-72.21085937 24.98003906 -71.44515625 24.24914062 -70.65625 23.49609375 C-63.07279901 16.75389375 -54.31350631 12.30512568 -45.37890625 7.60546875 C-40.86626856 5.22662564 -36.49214837 2.67152181 -32.14575195 0.00219727 C-21.89123732 -6.10203773 -10.13937851 -6.61263816 0 0 Z M-41.9765625 16.7109375 C-41.9765625 18.0309375 -41.9765625 19.3509375 -41.9765625 20.7109375 C-39.72140474 22.40305058 -37.58971774 23.81050994 -35.1640625 25.2109375 C-27.02476108 29.99492008 -27.02476108 29.99492008 -24.9765625 33.7109375 C-24.3357038 36.39178154 -24.2066911 38.94939427 -23.9765625 41.7109375 C-27.36462063 39.96557422 -29.73477048 37.98199283 -32.2890625 35.2109375 C-36.50688756 30.92039132 -40.36005831 28.95086739 -46.390625 28.55078125 C-53.175333 28.81334735 -57.94955693 31.22587677 -62.9765625 35.7109375 C-65.55172937 38.56092455 -67.78901687 41.55746263 -69.9765625 44.7109375 C-70.7603125 45.7628125 -71.5440625 46.8146875 -72.3515625 47.8984375 C-74.09126435 50.90945993 -74.64885448 53.27000325 -74.9765625 56.7109375 C-72.30178006 58.3736401 -69.9770481 59.71077563 -66.9765625 60.7109375 C-65.40996631 67.57985928 -65.40996631 67.57985928 -67.0234375 70.80078125 C-68.26015264 72.49952761 -69.61183778 74.113211 -70.9765625 75.7109375 C-75.18050115 74.94257056 -76.49843756 73.16261153 -78.9765625 69.7109375 C-82.64457497 70.11113638 -82.64457497 70.11113638 -85.48828125 72.29296875 C-88.71099329 78.40648561 -89.43628096 83.92831329 -89.9140625 90.7109375 C-90.41186781 97.75620276 -91.21918352 102.63058541 -95.44921875 108.484375 C-101.77647767 117.70825629 -102.15674493 128.7998341 -102.1640625 139.5859375 C-102.17630859 140.52824219 -102.18855469 141.47054687 -102.20117188 142.44140625 C-102.22334141 153.12712076 -100.72076573 160.51490539 -93.3515625 168.5859375 C-91.25929659 170.93320245 -91.25929659 170.93320245 -88.9765625 170.7109375 C-89.13253906 171.96648437 -89.28851563 173.22203125 -89.44921875 174.515625 C-91.93177755 191.82296709 -91.93177755 191.82296709 -85.9765625 207.7109375 C-80.79640179 213.81157111 -80.79640179 213.81157111 -73.9765625 217.7109375 C-71.39437574 217.75810464 -71.39437574 217.75810464 -68.9765625 216.7109375 C-67.14315578 214.66934743 -67.14315578 214.66934743 -65.6640625 212.0859375 C-61.7548914 206.12829246 -56.82200443 200.31395746 -49.9765625 197.7109375 C-42.82826201 196.94436372 -38.49292633 200.59308845 -32.9765625 204.7109375 C-26.8826865 209.71055713 -26.8826865 209.71055713 -24.9765625 212.7109375 C-25.21891356 215.417191 -25.76568335 217.28917919 -26.9765625 219.7109375 C-30.70867779 219.48474869 -32.60957965 218.33824184 -35.2890625 215.8984375 C-38.75591282 212.77147447 -42.43131417 210.00321399 -46.9765625 208.7109375 C-50.15309376 208.90885222 -51.57581013 209.35199591 -53.9609375 211.48828125 C-54.54359375 212.20113281 -55.12625 212.91398438 -55.7265625 213.6484375 C-56.31953125 214.35871094 -56.9125 215.06898438 -57.5234375 215.80078125 C-61.1498656 220.56777947 -60.34874435 225.94956246 -59.9765625 231.7109375 C-58.04286978 239.58382927 -51.80901144 246.6047989 -45.04248047 250.95410156 C-35.11581733 256.56960951 -25.58469403 260.78672846 -13.9765625 259.7109375 C-8.52785846 257.96323998 -5.19114442 254.31815588 -1.9765625 249.7109375 C-0.64067429 245.70327287 -0.82152804 241.84508501 -0.81593323 237.66558838 C-0.8083015 236.26032634 -0.8083015 236.26032634 -0.80051559 234.82667518 C-0.78476509 231.67383964 -0.77625922 228.52102706 -0.76782227 225.36816406 C-0.75828601 223.11309665 -0.74839495 220.85803072 -0.73817444 218.60296631 C-0.70676677 211.18584942 -0.68652199 203.76872123 -0.66796875 196.3515625 C-0.66467143 195.09044238 -0.66137411 193.82932226 -0.65797687 192.52998638 C-0.62719832 180.64080133 -0.60032427 168.75161322 -0.58355808 156.86240005 C-0.57960864 154.10911297 -0.57560564 151.35582597 -0.5715332 148.60253906 C-0.57002066 147.57607598 -0.57002066 147.57607598 -0.56847756 146.52887627 C-0.55147074 135.44359234 -0.51036043 124.35853165 -0.45951021 113.27335671 C-0.40772469 101.89060459 -0.37909716 90.50800976 -0.3713612 79.12512565 C-0.36639987 72.73471853 -0.35127211 66.34470831 -0.3116169 59.95441437 C-0.27480319 53.942813 -0.26632401 47.93183608 -0.27962303 41.92014313 C-0.279569 39.71385197 -0.26923847 37.50753351 -0.2478714 35.30134583 C-0.22024917 32.28821471 -0.22967264 29.27737036 -0.24830627 26.26422119 C-0.23151135 25.39173933 -0.21471642 24.51925747 -0.19741255 23.62033677 C-0.28288091 18.08752162 -1.51766978 15.15604394 -5.29904026 11.10164237 C-9.60781393 7.529569 -13.70755035 7.00895606 -19.18359375 7.04296875 C-27.33652073 8.47875713 -34.7221243 12.85345496 -41.9765625 16.7109375 Z " fill="#00ADC7" transform="translate(293.9765625,369.2890625)"/>
<path d="M0 0 C9.9 0 19.8 0 30 0 C32.48687032 6.21717581 34.89119197 12.36837598 37.0625 18.6875 C39.24554086 24.98697446 41.44865944 31.27871763 43.6875 37.55859375 C43.92150009 38.21508408 44.15550018 38.8715744 44.39659119 39.54795837 C44.75123192 40.54286034 44.75123192 40.54286034 45.11303711 41.55786133 C52.17622188 61.3729 52.17622188 61.3729 55 70 C57.67172565 78.14623149 60.51326347 86.23153038 63.375 94.3125 C63.61191559 94.98205719 63.84883118 95.65161438 64.09292603 96.34146118 C67.47213383 105.87585555 70.96017891 115.3627129 74.71435547 124.75708008 C75.01873535 125.53204834 75.32311523 126.3070166 75.63671875 127.10546875 C75.90186279 127.76699951 76.16700684 128.42853027 76.44018555 129.11010742 C77 131 77 131 77 135 C69.08 135 61.16 135 53 135 C51.57140523 131.06881332 50.14578106 127.13680225 48.72753906 123.2019043 C48.24422865 121.86371832 47.75921402 120.52614657 47.27246094 119.18920898 C46.57297655 117.26705444 45.87965723 115.34277196 45.1875 113.41796875 C44.55908203 111.68196411 44.55908203 111.68196411 43.91796875 109.91088867 C43 107 43 107 43 104 C25.18 104 7.36 104 -11 104 C-11.33 106.31 -11.66 108.62 -12 111 C-12.56379694 112.99333794 -13.17987295 114.9726428 -13.84765625 116.93359375 C-14.38422852 118.52397461 -14.38422852 118.52397461 -14.93164062 120.14648438 C-15.30482422 121.23251953 -15.67800781 122.31855469 -16.0625 123.4375 C-16.43955078 124.55060547 -16.81660156 125.66371094 -17.20507812 126.81054688 C-18.13126738 129.54221897 -19.06489476 132.27136716 -20 135 C-27.92 135 -35.84 135 -44 135 C-41.96648403 126.22233176 -39.32266321 117.79615722 -36.33227539 109.31228638 C-31.63744041 95.97209817 -27.21360274 82.56182805 -23 69.0625 C-18.97061696 56.16827498 -14.83980777 43.31427489 -10.5625 30.5 C-10.31701416 29.76290802 -10.07152832 29.02581604 -9.81860352 28.26638794 C-6.66236522 18.79860575 -3.35783722 9.40194422 0 0 Z " fill="#FCFCFC" transform="translate(535,443)"/>
<path d="M0 0 C0.73511307 0.00359528 1.47022614 0.00719055 2.22761536 0.01089478 C2.99829346 0.01074875 3.76897156 0.01060272 4.56300354 0.01045227 C7.12237823 0.01115157 9.68168104 0.01894471 12.24104309 0.02676392 C14.01081299 0.02862804 15.7805834 0.03005197 17.550354 0.03105164 C22.2176505 0.03487728 26.88491607 0.04470796 31.55220032 0.05575562 C36.31110719 0.06596873 41.07001905 0.07054904 45.82893372 0.07559204 C55.17335056 0.0863302 64.5177363 0.10392737 73.86213684 0.12442017 C73.86213684 7.38442017 73.86213684 14.64442017 73.86213684 22.12442017 C55.05213684 22.12442017 36.24213684 22.12442017 16.86213684 22.12442017 C16.86213684 33.34442017 16.86213684 44.56442017 16.86213684 56.12442017 C32.70213684 56.12442017 48.54213684 56.12442017 64.86213684 56.12442017 C64.86213684 64.04442017 64.86213684 71.96442017 64.86213684 80.12442017 C49.02213684 80.12442017 33.18213684 80.12442017 16.86213684 80.12442017 C16.86213684 91.01442017 16.86213684 101.90442017 16.86213684 113.12442017 C35.67213684 113.12442017 54.48213684 113.12442017 73.86213684 113.12442017 C73.86213684 120.38442017 73.86213684 127.64442017 73.86213684 135.12442017 C47.46213684 135.12442017 21.06213684 135.12442017 -6.13786316 135.12442017 C-6.17816619 101.56094889 -6.17816619 101.56094889 -6.18669128 87.54043579 C-6.1926344 77.84389723 -6.1996364 68.14736734 -6.21330261 58.45083618 C-6.2232491 51.39019894 -6.2297165 44.3295687 -6.23195165 37.26892465 C-6.23325882 33.52807559 -6.23634505 29.78724655 -6.24359322 26.04640388 C-6.2516064 21.87716903 -6.25185432 17.70796932 -6.25138855 13.53872681 C-6.25498383 12.28932312 -6.2585791 11.03991943 -6.26228333 9.75265503 C-6.26090866 8.62378372 -6.259534 7.49491241 -6.25811768 6.33183289 C-6.25903947 5.3445926 -6.25996126 4.35735231 -6.26091099 3.34019566 C-6.02521022 -0.90417005 -3.68651446 0.00760813 0 0 Z " fill="#FDFDFD" transform="translate(826.1378631591797,442.8755798339844)"/>
<path d="M0 0 C38.80952381 0 38.80952381 0 54.74609375 15.72265625 C64.81079461 26.74111928 65.76737193 39.65270081 65.14794922 53.94873047 C64.46958731 63.35400561 59.7576048 72.80385307 52.875 79.25 C36.96768547 91.69305492 19.72066287 91 0 91 C0 60.97 0 30.94 0 0 Z " fill="#0A151F" transform="translate(709,465)"/>
<path d="M0 0 C0 44.55 0 89.1 0 135 C-8.25 135 -16.5 135 -25 135 C-25 90.78 -25 46.56 -25 1 C-17.54047961 -2.72976019 -8.33999734 0 0 0 Z " fill="#FCFCFC" transform="translate(658,443)"/>
<path d="M0 0 C3.62199455 2.28625899 5.39972839 4.32376149 7.125 8.1875 C8.28368729 10.35430498 8.28368729 10.35430498 10 12 C12.73916248 12.63928589 15.27281779 12.68934222 18.08203125 12.75 C24.15948099 13.27069181 29.86287627 16.33818014 33.9375 20.875 C39.1159709 28.72116803 39.62488387 35.33583513 39.9375 44.625 C40.00517578 45.83929687 40.07285156 47.05359375 40.14257812 48.3046875 C40.18705078 49.47515625 40.23152344 50.645625 40.27734375 51.8515625 C40.32109131 52.91197754 40.36483887 53.97239258 40.40991211 55.06494141 C39.89180416 58.77470538 38.57956827 60.33656456 36 63 C32.77208445 65.1519437 31.71599191 65.20086443 28 65 C27.3125 62.875 27.3125 62.875 27 60 C27.48082031 59.17886719 27.96164062 58.35773437 28.45703125 57.51171875 C30.61026645 52.61106445 30.43786736 48.22883614 30.375 42.9375 C30.38660156 41.95716797 30.39820313 40.97683594 30.41015625 39.96679688 C30.41052648 32.96700027 30.41052648 32.96700027 27 27 C22.03528893 23.17303521 17.91338088 22.26247096 11.65625 22.46875 C7.27106818 23.34578636 4.98947925 25.86429622 2 29 C-2.88195256 32.25463504 -8.29820095 31.70046671 -14 31 C-17.75915503 29.1967153 -19.70220346 26.44669482 -22 23 C-22.9014784 16.27481157 -23.49584456 8.8482425 -19.4375 3.0625 C-14.22240662 -1.85275228 -6.64451712 -1.26702544 0 0 Z " fill="#4EC151" transform="translate(347,502)"/>
<path d="M0 0 C1.8125 1.125 1.8125 1.125 3 3 C3.43896484 5.71142578 3.43896484 5.71142578 3 9 C1.1189303 11.4291363 -0.64015348 13.38919855 -2.8359375 15.4921875 C-3.43048737 16.08299103 -4.02503723 16.67379456 -4.63760376 17.28250122 C-5.8933623 18.52484349 -7.15628233 19.75998311 -8.42578125 20.98828125 C-10.37520028 22.87519386 -12.30227321 24.78281059 -14.2265625 26.6953125 C-15.44928069 27.89969782 -16.67319868 29.10286655 -17.8984375 30.3046875 C-18.76884171 31.16234207 -18.76884171 31.16234207 -19.65682983 32.037323 C-23.76560054 36 -23.76560054 36 -26 36 C-26.93786082 41.05009595 -26.93786082 41.05009595 -26 46 C-24.68425769 46.70074561 -23.34811879 47.36376266 -22 48 C-20.29589844 49.49291992 -20.29589844 49.49291992 -18.609375 51.23046875 C-17.67387817 52.18324707 -17.67387817 52.18324707 -16.71948242 53.15527344 C-16.06955322 53.8259082 -15.41962402 54.49654297 -14.75 55.1875 C-10.12691883 59.89597673 -5.52389724 64.5101771 -0.41796875 68.703125 C1 70 1 70 3 73 C2.43396226 79.56603774 2.43396226 79.56603774 1 81 C-1.5625 81.5625 -1.5625 81.5625 -5 81 C-7.10000127 79.29401958 -8.87012329 77.44291505 -10.6796875 75.43359375 C-12.62075058 73.39776496 -14.57523911 71.59967093 -16.703125 69.76953125 C-21.29939625 65.79594964 -25.59161528 61.55592885 -29.875 57.25 C-30.63296875 56.49589844 -31.3909375 55.74179687 -32.171875 54.96484375 C-32.89632812 54.23910156 -33.62078125 53.51335938 -34.3671875 52.765625 C-35.01800293 52.11368164 -35.66881836 51.46173828 -36.33935547 50.79003906 C-39.43588377 47.45223466 -40.41100736 44.66048205 -41.2421875 40.23046875 C-40.55617422 33.91250773 -34.02363432 28.68679109 -29.78515625 24.4140625 C-29.09240097 23.71227875 -28.39964569 23.010495 -27.68589783 22.28744507 C-26.22699297 20.8140952 -24.76531461 19.34348702 -23.30102539 17.87548828 C-21.06084972 15.6233409 -18.84001385 13.35319488 -16.61914062 11.08203125 C-15.19646339 9.64989745 -13.77267303 8.2188684 -12.34765625 6.7890625 C-11.68604996 6.10792389 -11.02444366 5.42678528 -10.3427887 4.7250061 C-9.71541306 4.10370819 -9.08803741 3.48241028 -8.44165039 2.84228516 C-7.62368736 2.01671616 -7.62368736 2.01671616 -6.78919983 1.17446899 C-4.40418529 -0.3911055 -2.7983431 -0.28932966 0 0 Z " fill="#00B0C9" transform="translate(158,470)"/>
<path d="M0 0 C1.77510312 2.66265467 2.72052527 4.70693218 3.77172852 7.68334961 C4.10870255 8.63120834 4.44567657 9.57906708 4.79286194 10.5556488 C5.15125656 11.57755814 5.50965118 12.59946747 5.87890625 13.65234375 C6.43710304 15.22986168 6.43710304 15.22986168 7.00657654 16.83924866 C7.79272575 19.06360723 8.57685891 21.2886792 9.35913086 23.5144043 C10.55707133 26.92205766 11.76139115 30.327403 12.96679688 33.73242188 C13.72954385 35.89309605 14.49192587 38.05389911 15.25390625 40.21484375 C15.6143251 41.23472885 15.97474396 42.25461395 16.34608459 43.30540466 C16.8468174 44.73192101 16.8468174 44.73192101 17.35766602 46.18725586 C17.65141617 47.02203964 17.94516632 47.85682343 18.24781799 48.71690369 C18.92817697 50.78199572 19.47265964 52.89063858 20 55 C7.46 55 -5.08 55 -18 55 C-16.18797917 48.35592362 -14.37874351 41.83949135 -12.1875 35.33203125 C-11.93250732 34.56751144 -11.67751465 33.80299164 -11.41479492 33.01530457 C-10.8818013 31.41931129 -10.34737032 29.82379733 -9.81152344 28.22875977 C-8.99847279 25.80795283 -8.19028812 23.38556216 -7.3828125 20.96289062 C-6.85965849 19.39834268 -6.33623043 17.83388633 -5.8125 16.26953125 C-5.57490967 15.55787308 -5.33731934 14.8462149 -5.0925293 14.11299133 C-3.49604056 9.36774405 -1.77919448 4.67989816 0 0 Z " fill="#0A131C" transform="translate(550,471)"/>
<path d="M0 0 C9.04826755 1.3036955 14.71605592 9.76853975 20.55883789 16.22167969 C23.40150214 19.34151161 26.2791226 22.25985057 29.5 25 C30.428125 25.79857422 30.428125 25.79857422 31.375 26.61328125 C31.91125 27.07089844 32.4475 27.52851563 33 28 C35.85704493 30.49991432 36.83214577 32.03381468 37.48046875 35.765625 C37.99739841 43.68537746 37.99739841 43.68537746 35.63671875 46.796875 C34.42248226 47.75534105 33.17303498 48.67027436 31.8984375 49.546875 C29.77475287 51.17241138 28.83871483 52.63525157 27.5 54.9375 C21.09805391 65.0567051 10.24378366 76.47999897 -1 81 C-1.99 81 -2.98 81 -4 81 C-4.57589405 77.2356194 -4.02434838 76.03500621 -1.8046875 72.84375 C-0.8407286 71.71824853 0.13636563 70.60388967 1.125 69.5 C1.8365625 68.66662109 1.8365625 68.66662109 2.5625 67.81640625 C4.9340173 65.0923661 7.23894867 62.80817225 10.0703125 60.53515625 C13.41907203 57.637363 15.46833586 54.68594823 17.75 50.9375 C18.13542969 50.32583984 18.52085937 49.71417969 18.91796875 49.08398438 C19.9681281 47.40336604 20.98547784 45.70236818 22 44 C22.43828125 43.32066406 22.8765625 42.64132812 23.328125 41.94140625 C24.35452874 38.97557683 23.84959811 36.98704854 23 34 C21.3830954 31.60001838 21.3830954 31.60001838 19.1875 29.4375 C18.38570313 28.58929688 17.58390625 27.74109375 16.7578125 26.8671875 C15.84773438 25.92101562 14.93765625 24.97484375 14 24 C12.38537261 22.27471279 10.77879234 20.54229141 9.17504883 18.80688477 C8.11577155 17.66100496 7.05320126 16.51815886 5.98706055 15.37866211 C0.80323888 9.80914704 -0.24229158 7.38989324 0 0 Z " fill="#00AFC9" transform="translate(440,473)"/>
<path d="M0 0 C0.375 3.1875 0.375 3.1875 0 7 C-2.5625 9.25 -2.5625 9.25 -4.20703125 10.41796875 C-8.04818938 13.80722592 -10.45694804 18.60209314 -13 23 C-13.62648437 23.97259766 -13.62648437 23.97259766 -14.265625 24.96484375 C-15.35625168 27.98727195 -14.84761764 29.92690225 -14 33 C-10.58073166 38.95719782 -6.39384726 45.12929307 0 48 C2.9987881 48.56319908 5.95337251 48.86459433 9 49 C9 51.64 9 54.28 9 57 C0.44011056 57.98228239 -4.26918185 55.14204449 -11 50 C-13.9375 47.375 -13.9375 47.375 -16 45 C-16.680625 44.2575 -17.36125 43.515 -18.0625 42.75 C-22.02440084 37.12665687 -24.87998738 31.25428076 -24.50390625 24.2421875 C-23.49835632 19.76788005 -20.81358569 16.52841946 -18 13 C-17.24203125 12.02933594 -16.4840625 11.05867188 -15.703125 10.05859375 C-7.41430055 -0.32952447 -7.41430055 -0.32952447 0 0 Z " fill="#00ADC7" transform="translate(242,484)"/>
<path d="M0 0 C-0.61601102 3.35801128 -1.82288251 5.35743604 -3.875 8.0625 C-7.46481251 13.05702175 -10.60205202 18.24844337 -13.6875 23.5625 C-14.15075684 24.35342041 -14.61401367 25.14434082 -15.09130859 25.95922852 C-18.09173704 31.16763137 -20.67059773 36.45950967 -23 42 C-26.83740234 41.20898438 -26.83740234 41.20898438 -28.30078125 39.328125 C-28.63464844 38.64234375 -28.96851563 37.9565625 -29.3125 37.25 C-29.83263672 36.23679687 -29.83263672 36.23679687 -30.36328125 35.203125 C-31.18854446 32.34761303 -30.91841148 30.82422308 -30 28 C-28.3984375 25.45703125 -28.3984375 25.45703125 -26.375 22.8125 C-23.61681075 19.16441369 -20.97287078 15.49343074 -18.4375 11.6875 C-13.57518358 4.70000637 -8.88657662 -0.24017775 0 0 Z " fill="#00ADC6" transform="translate(264,432)"/>
<path d="M0 0 C0.33 0 0.66 0 1 0 C1 9.9 1 19.8 1 30 C5.03089844 29.98839844 9.06179688 29.97679687 13.21484375 29.96484375 C16.42077859 29.95841672 19.62671163 29.95299253 22.83264923 29.94824982 C26.22137231 29.94296031 29.61007056 29.9358872 32.9987793 29.92456055 C36.88329777 29.91165733 40.76780597 29.90677076 44.65234375 29.90234375 C45.87211411 29.89718246 47.09188446 29.89202118 48.34861755 29.88670349 C50.03024742 29.88659019 50.03024742 29.88659019 51.74584961 29.88647461 C52.73846298 29.884254 53.73107635 29.88203339 54.75376892 29.87974548 C57 30 57 30 58 31 C58.08726223 32.78071246 58.10699041 34.5648314 58.09765625 36.34765625 C58.09282227 37.96704102 58.09282227 37.96704102 58.08789062 39.61914062 C58.07532227 41.32360352 58.07532227 41.32360352 58.0625 43.0625 C58.05798828 44.20267578 58.05347656 45.34285156 58.04882812 46.51757812 C58.03699747 49.34510351 58.0205141 52.1725264 58 55 C54.94453129 56.52773435 51.7765022 56.08021964 48.42919922 56.02172852 C47.25833267 56.0073172 47.25833267 56.0073172 46.06381226 55.99261475 C43.47734719 55.95956843 40.89104808 55.91925764 38.3046875 55.87890625 C36.51393219 55.85461063 34.72317069 55.8307668 32.93240356 55.80735779 C28.21410085 55.74446128 23.49590728 55.67541043 18.77770996 55.60510254 C13.96513855 55.53446932 9.15248962 55.46962238 4.33984375 55.40429688 C-5.10685603 55.27521281 -14.55345064 55.13963071 -24 55 C-24 54.67 -24 54.34 -24 54 C2.4 54 28.8 54 56 54 C56 46.74 56 39.48 56 32 C37.19 32 18.38 32 -1 32 C-0.67 21.44 -0.34 10.88 0 0 Z " fill="#2B3137" transform="translate(844,524)"/>
<path d="M0 0 C7.02352425 0.43001169 10.81248264 3.12095206 15.9375 7.75 C17.64548203 11.36690311 17.22680775 15.06866561 17 19 C9.79886654 19.66677162 5.16546977 17.66563017 -1 14 C-2 13 -2 13 -2.09765625 11.15234375 C-2.06510417 9.1015625 -2.03255208 7.05078125 -2 5 C-1.34 5 -0.68 5 0 5 C0 3.35 0 1.7 0 0 Z " fill="#00AFC9" transform="translate(253,486)"/>
<path d="M0 0 C18.81 0 37.62 0 57 0 C57 0.99 57 1.98 57 3 C39.18 3 21.36 3 3 3 C3 12.57 3 22.14 3 32 C17.85 32 32.7 32 48 32 C48 32.33 48 32.66 48 33 C32.16 33.33 16.32 33.66 0 34 C0 22.78 0 11.56 0 0 Z " fill="#1E2730" transform="translate(843,465)"/>
<path d="M0 0 C2.4375 0.4375 2.4375 0.4375 4.3125 1.5 C6.11810316 4.60964989 5.23702488 7.05489473 4.4375 10.4375 C2.4375 12.4375 2.4375 12.4375 -0.5 12.75 C-3.5625 12.4375 -3.5625 12.4375 -5.4375 11.25 C-6.99573149 8.73951593 -7.05881357 7.34447947 -6.5625 4.4375 C-4.53830677 1.66360557 -3.41064923 0.58230597 0 0 Z " fill="#09141D" transform="translate(340.5625,511.5625)"/>
<path d="M0 0 C0.99 0.66 1.98 1.32 3 2 C3.43566323 4.83181098 3.39684676 6.36063578 1.875 8.8125 C-0.87155972 10.55198782 -2.81846974 10.39769128 -6 10 C-7.9375 8.8125 -7.9375 8.8125 -9 7 C-8.875 4.4375 -8.875 4.4375 -8 2 C-4.75366476 -0.1642235 -3.75698557 -0.37569856 0 0 Z " fill="#0B1920" transform="translate(367,430)"/>
<path d="M0 0 C1.875 1.1875 1.875 1.1875 3 3 C2.75546876 6.34192692 2.39456443 7.60543557 0 10 C-6.46153846 9.53846154 -6.46153846 9.53846154 -9 7 C-8.8125 4.5 -8.8125 4.5 -8 2 C-4.76746204 -0.15502531 -3.74849077 -0.46856135 0 0 Z " fill="#09131E" transform="translate(393,487)"/>
<path d="M0 0 C2.5 0.25 2.5 0.25 4.5 2.25 C4.8125 5.25 4.8125 5.25 4.5 8.25 C1.5 10.25 1.5 10.25 -1.0625 10 C-3.5 9.25 -3.5 9.25 -5.5 7.25 C-5.08994391 3.14943907 -4.53376372 0.45337637 0 0 Z " fill="#0A171D" transform="translate(350.5,559.75)"/>
<path d="M0 0 C0.33 0.99 0.66 1.98 1 3 C13.375 2.505 13.375 2.505 26 2 C25.34 3.32 24.68 4.64 24 6 C16.41 6 8.82 6 1 6 C0.34 4.68 -0.32 3.36 -1 2 C-0.67 1.34 -0.34 0.68 0 0 Z " fill="#21282E" transform="translate(490,575)"/>
<path d="M0 0 C0.33 0 0.66 0 1 0 C1 7.26 1 14.52 1 22 C8.26 22 15.52 22 23 22 C19.74610012 24.16926659 18.86604043 24.24080049 15.11328125 24.1953125 C14.26805908 24.19031738 13.42283691 24.18532227 12.55200195 24.18017578 C11.48296631 24.16196777 10.41393066 24.14375977 9.3125 24.125 C5.909375 24.08375 2.50625 24.0425 -1 24 C-0.67 16.08 -0.34 8.16 0 0 Z " fill="#191C1E" transform="translate(710,532)"/>
<path d="M0 0 C0.66 0 1.32 0 2 0 C2.08681476 3.62484999 2.14032721 7.24943443 2.1875 10.875 C2.22520508 12.42380859 2.22520508 12.42380859 2.26367188 14.00390625 C2.27333984 14.99003906 2.28300781 15.97617187 2.29296875 16.9921875 C2.3086792 17.90339355 2.32438965 18.81459961 2.34057617 19.75341797 C2.22818604 20.49479004 2.1157959 21.23616211 2 22 C1.01 22.66 0.02 23.32 -1 24 C-1.02712325 21.12493579 -1.04689851 18.25013092 -1.0625 15.375 C-1.07087891 14.56675781 -1.07925781 13.75851562 -1.08789062 12.92578125 C-1.1058955 8.49658082 -0.89622662 4.36116576 0 0 Z " fill="#42A949" transform="translate(415,554)"/>
<path d="M0 0 C8.33010326 6.7349771 15.09334907 14.85369378 22 23 C19 23 19 23 17.08984375 21.19921875 C16.37957031 20.37035156 15.66929687 19.54148437 14.9375 18.6875 C11.113995 14.27595564 11.113995 14.27595564 7.1875 9.95703125 C6.72867432 9.46307861 6.26984863 8.96912598 5.79711914 8.46020508 C4.48948624 7.05583223 3.18032141 5.65288626 1.87109375 4.25 C0 2 0 2 0 0 Z " fill="#0A0B11" transform="translate(442,484)"/>
<path d="M0 0 C1.32 0.33 2.64 0.66 4 1 C3.01 1 2.02 1 1 1 C1.020625 1.721875 1.04125 2.44375 1.0625 3.1875 C1.00179441 5.91925138 0.60741465 8.34256091 0 11 C1.134375 11.598125 2.26875 12.19625 3.4375 12.8125 C6.875 14.625 6.875 14.625 8 18 C0.38289206 15.74949084 0.38289206 15.74949084 -2 13 C-2.3380915 10.24619024 -2.18311954 7.79257303 -2 5 C-1.34 5 -0.68 5 0 5 C0 3.35 0 1.7 0 0 Z " fill="#0090A7" transform="translate(253,486)"/>
<path d="M0 0 C0 1.65 0 3.3 0 5 C-0.66 5 -1.32 5 -2 5 C-2 7.64 -2 10.28 -2 13 C-2.66 13 -3.32 13 -4 13 C-4.47081122 4.83927218 -4.47081122 4.83927218 -2.5625 1.4375 C-1 0 -1 0 0 0 Z " fill="#04404F" transform="translate(253,486)"/>
<path d="M0 0 C1.65 0 3.3 0 5 0 C5.33 1.65 5.66 3.3 6 5 C5.34 5 4.68 5 4 5 C4 4.34 4 3.68 4 3 C1.69 3.33 -0.62 3.66 -3 4 C-2.67 3.34 -2.34 2.68 -2 2 C-1.34 2 -0.68 2 0 2 C0 1.34 0 0.68 0 0 Z " fill="#025A6F" transform="translate(260,429)"/>
<path d="M0 0 C2 3 2 3 1.75 6.0625 C1 9 1 9 -1 11 C-2.60080151 6.99799622 -1.29279692 3.95443764 0 0 Z " fill="#141B22" transform="translate(517,568)"/>
<path d="M0 0 C0.33 0.99 0.66 1.98 1 3 C-1.31 5.31 -3.62 7.62 -6 10 C-6 6.41087588 -5.33563446 5.89142971 -3 3.3125 C-2.443125 2.68988281 -1.88625 2.06726563 -1.3125 1.42578125 C-0.879375 0.95527344 -0.44625 0.48476563 0 0 Z " fill="#0091A7" transform="translate(233,486)"/>
<path d="M0 0 C0.99 0.33 1.98 0.66 3 1 C2.67 2.98 2.34 4.96 2 7 C1.01 7 0.02 7 -1 7 C-0.67 4.69 -0.34 2.38 0 0 Z " fill="#08222D" transform="translate(206,447)"/>
</svg>
